<?xml version="1.0" standalone="no"?>
<!DOCTYPE svg PUBLIC "-//W3C//DTD SVG 20010904//EN"
 "http://www.w3.org/TR/2001/REC-SVG-20010904/DTD/svg10.dtd">
<svg version="1.0" xmlns="http://www.w3.org/2000/svg"
 width="1378.000000pt" height="1378.000000pt" viewBox="0 0 1378.000000 1378.000000"
 preserveAspectRatio="xMidYMid meet">
<metadata>
Created by potrace 1.14, written by Peter Selinger 2001-2017
</metadata>
<g transform="translate(0.000000,1378.000000) scale(0.100000,-0.100000)"
fill="#000000" stroke="none">
<path d="M2315 13771 c-3 -2 -5 -358 -5 -790 0 -573 3 -797 12 -826 6 -22 11
-44 10 -48 -2 -5 2 -6 8 -2 6 4 17 2 24 -4 19 -16 1773 -16 1792 0 7 6 19 7
25 3 8 -4 9 -3 5 5 -4 6 -2 19 6 28 10 13 14 167 16 820 l2 803 4788 1 c2633
1 4776 3 4762 5 -41 5 -11440 10 -11445 5z"/>
<path d="M617 13763 c299 -2 787 -2 1085 0 299 1 55 2 -542 2 -597 0 -841 -1
-543 -2z"/>
<path d="M12 13675 c0 -16 2 -22 5 -12 2 9 2 23 0 30 -3 6 -5 -1 -5 -18z"/>
<path d="M15 6805 c0 -3745 1 -5276 2 -3402 2 1875 2 4939 0 6810 -1 1871 -2
338 -2 -3408z"/>
<path d="M2655 11776 c-28 -12 -45 -35 -59 -79 -8 -25 17 -81 45 -101 57 -39
149 -2 163 65 9 44 -19 98 -60 115 -40 17 -50 17 -89 0z"/>
<path d="M5469 11693 c-1 -5 -1 -11 0 -15 0 -5 -3 -8 -8 -8 -5 0 -12 -7 -15
-16 -4 -11 1 -10 20 5 19 15 31 18 39 11 8 -7 12 -5 12 4 0 9 -8 13 -24 10
-15 -3 -22 -1 -18 6 3 5 4 10 1 10 -3 0 -7 -3 -7 -7z"/>
<path d="M6434 11692 c3 -5 0 -13 -6 -15 -9 -4 -10 -6 -1 -6 17 -1 25 16 12
25 -7 4 -9 3 -5 -4z"/>
<path d="M6467 11649 c7 -7 15 -10 18 -7 3 3 -2 9 -12 12 -14 6 -15 5 -6 -5z"/>
<path d="M6391 11639 c-1 -8 11 -26 27 -40 l27 -24 -21 25 c-12 14 -24 32 -27
40 -5 13 -6 13 -6 -1z"/>
<path d="M6500 11621 c0 -6 4 -13 10 -16 6 -3 7 1 4 9 -7 18 -14 21 -14 7z"/>
<path d="M5408 11603 c-15 -18 -46 -73 -35 -63 9 8 57 80 53 80 -1 0 -10 -8
-18 -17z"/>
<path d="M5489 11583 c-13 -16 -12 -17 4 -4 9 7 17 15 17 17 0 8 -8 3 -21 -13z"/>
<path d="M6392 11593 c1 -4 -4 -19 -11 -32 -11 -20 -11 -25 5 -40 11 -9 13 -9
6 -1 -15 18 -16 34 0 24 7 -4 8 -3 4 5 -4 6 -3 18 4 26 8 9 8 15 0 20 -6 4 -9
3 -8 -2z"/>
<path d="M6330 11579 c0 -5 5 -7 10 -4 6 3 10 8 10 11 0 2 -4 4 -10 4 -5 0
-10 -5 -10 -11z"/>
<path d="M5610 11571 c0 -6 4 -13 10 -16 6 -3 7 1 4 9 -7 18 -14 21 -14 7z"/>
<path d="M5553 11558 c-15 -18 -35 -58 -29 -58 2 0 13 16 25 35 20 35 22 46 4
23z"/>
<path d="M6413 11555 c0 -8 4 -12 9 -9 5 3 6 10 3 15 -9 13 -12 11 -12 -6z"/>
<path d="M6443 11555 c0 -8 4 -12 9 -9 5 3 6 10 3 15 -9 13 -12 11 -12 -6z"/>
<path d="M6291 11539 c-1 -8 10 -26 24 -39 14 -13 24 -29 21 -35 -2 -7 2 -12
9 -12 17 0 5 26 -21 47 -9 8 -20 23 -24 35 -6 14 -9 15 -9 4z"/>
<path d="M6551 11533 c7 -12 15 -20 18 -17 3 2 -3 12 -13 22 -17 16 -18 16 -5
-5z"/>
<path d="M5437 11505 c-24 -50 -20 -58 4 -12 11 22 19 41 17 43 -3 2 -12 -12
-21 -31z"/>
<path d="M5346 11490 c-9 -22 -16 -46 -16 -53 1 -6 10 10 20 37 11 28 18 51
16 53 -2 2 -11 -14 -20 -37z"/>
<path d="M6484 11485 c11 -24 22 -42 24 -40 5 5 -25 72 -35 78 -5 3 0 -14 11
-38z"/>
<path d="M5612 11496 c7 -8 15 -12 17 -11 5 6 -10 25 -20 25 -5 0 -4 -6 3 -14z"/>
<path d="M6405 11490 c3 -5 8 -10 11 -10 2 0 4 5 4 10 0 6 -5 10 -11 10 -5 0
-7 -4 -4 -10z"/>
<path d="M5500 11469 c-7 -11 -10 -23 -7 -25 2 -2 9 7 15 21 14 30 7 33 -8 4z"/>
<path d="M5571 11468 c-7 -11 -10 -23 -7 -26 3 -3 6 0 6 7 0 7 5 9 12 5 6 -4
8 -3 4 4 -3 6 2 12 11 14 16 3 16 4 2 10 -9 4 -20 -2 -28 -14z"/>
<path d="M5662 11447 c-12 -13 -22 -27 -22 -31 0 -5 10 4 21 18 14 18 28 26
40 23 11 -3 17 -1 13 4 -9 15 -30 10 -52 -14z"/>
<path d="M6218 11463 c7 -3 16 -2 19 1 4 3 -2 6 -13 5 -11 0 -14 -3 -6 -6z"/>
<path d="M6428 11465 c-4 -4 -3 -17 3 -27 6 -11 14 -59 19 -107 7 -83 7 -84 8
-21 0 70 -18 166 -30 155z"/>
<path d="M6581 11454 c0 -11 3 -14 6 -6 3 7 2 16 -1 19 -3 4 -6 -2 -5 -13z"/>
<path d="M5905 11451 c-11 -5 -24 -6 -29 -3 -5 3 -6 0 -3 -5 4 -6 0 -17 -9
-24 -60 -49 -57 -157 5 -213 21 -19 21 -25 21 -447 l0 -427 -30 -7 c-44 -10
-78 -42 -86 -80 l-6 -35 -700 0 c-662 0 -700 -1 -695 -17 2 -10 16 -58 31
-106 47 -160 68 -315 75 -544 l6 -213 993 -2 c870 -3 994 -5 1002 -18 6 -9 9
-502 7 -1325 l-2 -1310 -28 -57 c-34 -69 -101 -131 -165 -152 -77 -26 -527
-92 -753 -112 l-76 -6 -46 45 c-71 71 -101 77 -417 77 -310 0 -335 -5 -408
-78 l-45 -45 -86 7 c-259 21 -721 95 -779 125 -52 27 -107 87 -134 146 l-23
50 -5 1055 c-3 586 -9 1045 -13 1032 -5 -13 -28 -51 -52 -86 -37 -55 -46 -78
-70 -192 -92 -438 -148 -668 -168 -693 -7 -8 -7 -12 -2 -9 7 4 9 -105 7 -320
-4 -301 3 -612 28 -1377 5 -159 17 -495 25 -745 8 -250 20 -606 26 -790 7
-184 12 -433 13 -553 1 -119 4 -207 8 -195 5 17 7 13 5 -14 -2 -21 1 -34 7
-31 5 4 7 -3 4 -15 -4 -14 -2 -20 5 -15 7 4 8 0 4 -11 -4 -10 -3 -15 3 -11 6
3 10 0 10 -8 0 -8 7 -20 15 -27 9 -7 14 -19 11 -27 -3 -8 -2 -12 2 -9 5 3 21
-9 36 -25 39 -41 116 -78 186 -91 58 -10 58 -10 69 -53 15 -60 53 -77 169 -75
131 2 122 5 122 -37 0 -21 4 -44 8 -51 11 -17 2027 -18 2048 -1 8 6 14 29 14
50 0 24 5 39 13 40 6 0 53 0 102 -1 50 -1 104 4 120 10 34 13 61 48 57 73 -5
29 15 45 58 45 22 1 65 12 94 25 30 14 58 22 62 19 4 -4 5 -2 2 3 -2 6 13 26
36 45 37 33 42 27 8 -12 -8 -10 -11 -18 -6 -18 13 0 45 56 37 64 -4 3 4 17 17
31 13 14 20 25 17 25 -4 0 -1 16 7 35 21 50 22 66 86 2100 10 347 22 677 25
735 3 58 5 171 6 251 l1 146 59 2 c61 2 64 -1 61 -49 -1 -8 142 -5 156 3 9 7
12 310 12 1461 0 1240 -2 1455 -14 1465 -9 7 -40 11 -78 9 -54 -3 -64 -6 -73
-25 -9 -20 -17 -23 -70 -23 -38 0 -55 4 -46 9 8 5 9 10 3 12 -6 2 -12 41 -14
86 -2 44 -6 79 -10 77 -3 -2 -10 8 -16 24 -12 35 -92 123 -128 142 -16 8 -40
23 -53 35 -13 11 -21 14 -16 6 6 -11 4 -13 -11 -6 -10 5 -102 10 -204 13
l-186 4 -12 37 c-7 20 -14 41 -14 48 -1 7 -4 11 -7 10 -12 -2 -51 15 -51 23 0
4 -8 7 -17 6 -17 -1 -18 26 -21 412 -2 307 1 412 9 406 8 -5 9 -2 1 12 -8 14
-4 23 19 45 16 15 32 41 35 58 4 17 10 28 15 25 4 -2 2 16 -5 41 -8 25 -11 45
-8 45 3 0 -5 12 -19 26 -43 47 -119 66 -174 45z m226 -1540 c16 -20 19 -40 19
-141 0 -167 12 -160 -267 -160 -272 0 -260 -8 -262 163 -2 113 -1 118 24 143
l25 25 221 -3 c218 -3 221 -3 240 -27z m269 -7 c0 -8 -70 -124 -75 -124 -4 0
-75 118 -75 126 0 2 34 4 75 4 41 0 75 -3 75 -6z m0 -160 c0 -8 -70 -124 -75
-124 -4 0 -75 118 -75 126 0 2 34 4 75 4 41 0 75 -3 75 -6z m-1097 -3378 c18
-7 43 -26 57 -40 24 -26 25 -35 30 -179 6 -184 2 -210 -44 -256 l-36 -36 -290
-3 c-326 -3 -340 -1 -382 67 -20 31 -23 52 -27 159 -4 155 3 204 37 243 46 56
62 58 355 59 205 0 275 -3 300 -14z m-1316 -120 c28 -32 29 -70 8 -187 -23
-126 -24 -129 -50 -155 -19 -19 -34 -24 -75 -24 -44 0 -56 5 -81 29 -19 19
-29 40 -29 58 0 47 39 252 52 273 19 29 49 40 102 36 39 -3 55 -9 73 -30z
m2195 7 c22 -23 30 -49 49 -155 19 -108 20 -132 9 -158 -25 -60 -124 -81 -175
-37 -22 19 -29 40 -50 152 -23 124 -23 131 -7 165 32 65 126 83 174 33z
m-1820 -52 c30 -27 32 -31 30 -97 -3 -111 -19 -223 -33 -241 -8 -9 -29 -22
-47 -30 -43 -18 -103 -2 -132 35 -21 25 -21 34 -15 132 9 140 19 180 50 208
39 33 105 31 147 -7z m1434 6 c29 -26 37 -60 49 -217 6 -88 5 -97 -15 -122
-24 -31 -86 -52 -125 -42 -52 13 -72 54 -81 161 -14 174 -13 181 24 214 42 38
107 41 148 6z m-1693 -517 c208 -19 236 -23 268 -44 63 -42 89 -139 54 -206
-16 -32 -67 -74 -102 -84 -27 -9 -486 31 -530 45 -37 12 -90 68 -99 105 -19
73 12 142 81 185 37 24 44 23 328 -1z m2144 -6 c93 -69 99 -185 14 -257 -39
-32 -42 -33 -316 -57 -164 -14 -240 -17 -264 -10 -133 38 -152 235 -28 294 40
18 391 56 499 52 50 -1 75 -7 95 -22z m-932 -22 c90 -71 86 -196 -8 -266 -27
-20 -43 -21 -275 -24 -136 -2 -262 0 -280 3 -38 7 -100 58 -114 94 -18 47 -11
110 15 150 46 69 58 71 362 69 266 -3 271 -3 300 -26z m-1188 -391 c157 -15
210 -23 235 -38 139 -81 81 -295 -79 -295 -83 0 -436 32 -481 44 -46 12 -97
61 -108 104 -10 41 2 110 24 142 49 67 92 72 409 43z m2114 -13 c44 -24 79
-85 79 -136 0 -70 -56 -143 -117 -156 -80 -17 -492 -45 -523 -36 -127 36 -151
219 -37 289 23 14 65 23 152 31 66 6 158 15 205 19 155 15 199 13 241 -11z
m-944 -10 c105 -58 110 -210 10 -276 -40 -27 -42 -27 -255 -31 -247 -4 -309 2
-353 32 -92 62 -95 193 -7 261 18 13 44 26 58 29 14 3 135 4 270 3 212 -1 249
-3 277 -18z m-1225 -378 c128 -12 247 -25 264 -31 60 -19 104 -83 104 -152 0
-77 -75 -157 -148 -157 -19 0 -136 9 -261 21 -190 17 -232 24 -265 42 -112 63
-97 238 24 286 34 13 19 14 282 -9z m2179 -25 c96 -62 88 -219 -14 -271 -31
-17 -377 -54 -502 -54 -102 0 -165 59 -165 155 0 82 55 149 133 160 104 15
455 42 482 38 17 -3 46 -15 66 -28z m-944 -31 c95 -71 98 -201 5 -264 -35 -25
-37 -25 -301 -28 -244 -2 -269 -1 -301 16 -54 29 -80 75 -80 140 0 69 26 113
83 141 40 20 54 21 304 19 247 -3 263 -4 290 -24z m-1194 -404 c137 -13 228
-25 247 -35 42 -22 73 -71 78 -126 5 -58 -10 -101 -50 -134 -51 -43 -78 -45
-348 -21 -213 19 -255 26 -278 43 -98 72 -96 213 4 270 48 28 71 28 347 3z
m2123 4 c43 -21 84 -88 84 -138 0 -79 -45 -137 -120 -156 -76 -18 -477 -49
-512 -40 -138 40 -164 221 -41 292 24 14 79 23 225 37 255 24 321 25 364 5z
m-925 -28 c49 -34 73 -86 67 -148 -6 -61 -31 -96 -89 -126 -43 -22 -50 -23
-301 -20 -241 3 -258 4 -284 24 -84 62 -102 163 -42 239 40 51 61 54 348 55
265 0 265 0 301 -24z m895 -473 c24 -24 26 -32 21 -82 -10 -119 -51 -192 -129
-232 -38 -19 -260 -48 -377 -49 -57 0 -105 32 -126 83 -21 52 -19 153 3 196
33 67 52 73 265 92 290 25 311 24 343 -8z m-952 -9 c53 -26 76 -77 76 -168 0
-88 -14 -123 -62 -158 -32 -22 -42 -23 -239 -26 -230 -4 -270 2 -314 48 -28
30 -30 36 -33 128 -3 84 0 101 18 130 35 56 60 61 302 62 181 0 223 -3 252
-16z"/>
<path d="M5670 9885 c-26 -31 3 -35 221 -33 206 3 214 4 214 23 0 19 -8 20
-211 23 -181 2 -213 0 -224 -13z"/>
<path d="M5660 9728 c0 -29 4 -59 8 -66 7 -9 58 -12 223 -10 l214 3 3 63 3 62
-226 0 -225 0 0 -52z"/>
<path d="M4962 5154 c-15 -10 -22 -25 -22 -49 0 -59 69 -86 111 -44 24 24 23
76 -1 71 -8 -2 -12 0 -8 4 12 11 -12 34 -36 34 -12 0 -32 -7 -44 -16z"/>
<path d="M6195 11440 c-3 -5 -1 -10 4 -10 6 0 11 5 11 10 0 6 -2 10 -4 10 -3
0 -8 -4 -11 -10z"/>
<path d="M6276 11415 c9 -14 20 -40 24 -58 7 -27 8 -28 9 -7 1 23 -32 90 -44
90 -3 0 2 -11 11 -25z"/>
<path d="M6361 11435 c1 -19 18 -51 18 -35 0 8 -4 22 -9 30 -5 8 -9 11 -9 5z"/>
<path d="M5546 11415 c-9 -26 -7 -32 5 -12 6 10 9 21 6 23 -2 3 -7 -2 -11 -11z"/>
<path d="M6511 11414 c0 -11 3 -14 6 -6 3 7 2 16 -1 19 -3 4 -6 -2 -5 -13z"/>
<path d="M6205 11410 c-3 -5 -1 -10 5 -10 6 0 9 -4 6 -8 -3 -5 1 -9 9 -9 10 0
11 5 4 19 -11 21 -15 22 -24 8z"/>
<path d="M5317 11397 c-3 -8 -1 -20 4 -28 6 -10 9 -7 9 14 0 29 -5 35 -13 14z"/>
<path d="M5396 11359 c-4 -29 -3 -55 1 -60 4 -4 9 19 11 52 1 32 0 59 -2 59
-2 0 -6 -23 -10 -51z"/>
<path d="M5471 11384 c0 -11 3 -14 6 -6 3 7 2 16 -1 19 -3 4 -6 -2 -5 -13z"/>
<path d="M5623 11385 c-3 -9 -3 -18 -1 -21 3 -3 8 4 11 16 6 23 -1 27 -10 5z"/>
<path d="M6602 11329 c-1 -37 -4 -82 -7 -100 l-5 -34 10 33 c6 18 9 63 7 100
l-3 67 -2 -66z"/>
<path d="M2401 11364 c0 -11 3 -14 6 -6 3 7 2 16 -1 19 -3 4 -6 -2 -5 -13z"/>
<path d="M6518 11336 c-1 -25 0 -55 3 -68 3 -13 7 7 7 45 2 76 -4 90 -10 23z"/>
<path d="M6381 11354 c0 -11 3 -14 6 -6 3 7 2 16 -1 19 -3 4 -6 -2 -5 -13z"/>
<path d="M5463 11320 c0 -25 2 -35 4 -22 2 12 2 32 0 45 -2 12 -4 2 -4 -23z"/>
<path d="M5530 11335 c0 -14 2 -25 4 -25 2 0 6 11 8 25 3 14 1 25 -3 25 -5 0
-9 -11 -9 -25z"/>
<path d="M5612 11330 c0 -14 2 -19 5 -12 2 6 2 18 0 25 -3 6 -5 1 -5 -13z"/>
<path d="M2414 11309 c-4 -7 -3 -10 4 -5 6 3 15 -2 21 -11 5 -10 12 -15 15
-12 4 3 -2 14 -13 23 -14 13 -21 14 -27 5z"/>
<path d="M4080 11305 c-7 -8 -27 -19 -44 -24 -24 -7 -26 -9 -9 -10 12 -1 35
10 50 24 15 13 25 25 22 25 -4 0 -12 -7 -19 -15z"/>
<path d="M5535 11289 c-4 -6 -5 -12 -2 -15 2 -3 7 2 10 11 7 17 1 20 -8 4z"/>
<path d="M2478 11273 c7 -3 16 -2 19 1 4 3 -2 6 -13 5 -11 0 -14 -3 -6 -6z"/>
<path d="M5621 11264 c0 -11 3 -14 6 -6 3 7 2 16 -1 19 -3 4 -6 -2 -5 -13z"/>
<path d="M6377 11261 c-4 -17 -3 -21 5 -13 5 5 8 16 6 23 -3 8 -7 3 -11 -10z"/>
<path d="M2561 11254 c0 -11 3 -14 6 -6 3 7 2 16 -1 19 -3 4 -6 -2 -5 -13z"/>
<path d="M5322 11240 c0 -19 2 -27 5 -17 2 9 2 25 0 35 -3 9 -5 1 -5 -18z"/>
<path d="M5402 11245 c0 -16 2 -22 5 -12 2 9 2 23 0 30 -3 6 -5 -1 -5 -18z"/>
<path d="M6287 11237 l-17 -32 20 24 c17 20 26 41 18 41 -2 0 -11 -15 -21 -33z"/>
<path d="M6621 11254 c0 -11 3 -14 6 -6 3 7 2 16 -1 19 -3 4 -6 -2 -5 -13z"/>
<path d="M5541 11244 c0 -11 3 -14 6 -6 3 7 2 16 -1 19 -3 4 -6 -2 -5 -13z"/>
<path d="M6220 11239 c0 -5 5 -7 10 -4 6 3 10 8 10 11 0 2 -4 4 -10 4 -5 0
-10 -5 -10 -11z"/>
<path d="M5630 11235 c0 -5 5 -17 10 -25 5 -8 10 -10 10 -5 0 6 -5 17 -10 25
-5 8 -10 11 -10 5z"/>
<path d="M6502 11199 c-7 -23 -11 -43 -8 -46 6 -6 28 65 24 77 -2 6 -9 -8 -16
-31z"/>
<path d="M2552 11205 c0 -16 2 -22 5 -12 2 9 2 23 0 30 -3 6 -5 -1 -5 -18z"/>
<path d="M3943 11140 c0 -47 2 -66 4 -42 2 23 2 61 0 85 -2 23 -4 4 -4 -43z"/>
<path d="M6200 11191 c0 -6 4 -13 10 -16 6 -3 7 1 4 9 -7 18 -14 21 -14 7z"/>
<path d="M6243 11176 c-17 -19 -18 -26 -8 -30 7 -2 19 3 27 12 9 11 10 14 1 8
-16 -9 -17 6 -1 22 7 7 10 12 7 12 -3 0 -15 -11 -26 -24z"/>
<path d="M6348 11182 c4 -11 1 -13 -8 -7 -9 5 -11 4 -6 -3 10 -16 14 -15 25 6
7 14 6 19 -4 19 -7 0 -11 -7 -7 -15z"/>
<path d="M5490 11186 c0 -11 30 -66 36 -66 2 0 -3 15 -12 33 -19 36 -24 44
-24 33z"/>
<path d="M5595 11140 c10 -11 20 -20 23 -20 3 0 -3 9 -13 20 -10 11 -20 20
-23 20 -3 0 3 -9 13 -20z"/>
<path d="M6283 11145 c0 -8 4 -12 9 -9 5 3 6 10 3 15 -9 13 -12 11 -12 -6z"/>
<path d="M5430 11141 c0 -6 4 -13 10 -16 6 -3 7 1 4 9 -7 18 -14 21 -14 7z"/>
<path d="M6438 11123 c-7 -9 -7 -17 2 -28 10 -12 10 -18 -1 -32 -9 -11 -10
-14 -2 -9 19 11 37 47 22 44 -6 -2 -13 2 -16 8 -2 7 6 11 18 10 12 0 24 4 26
11 6 16 -35 12 -49 -4z"/>
<path d="M5366 11105 c3 -11 7 -27 8 -35 1 -8 6 -15 11 -15 12 0 9 9 -11 44
-9 15 -12 17 -8 6z"/>
<path d="M5456 11097 c3 -10 9 -15 12 -12 3 3 0 11 -7 18 -10 9 -11 8 -5 -6z"/>
<path d="M6359 11083 c-6 -7 -21 -14 -33 -14 -18 -1 -18 -2 -3 -6 10 -3 26 2
36 11 10 9 20 13 23 10 3 -3 8 -1 12 4 8 14 -23 10 -35 -5z"/>
<path d="M6541 11082 c-7 -13 -6 -19 2 -19 7 0 13 9 13 19 0 10 -1 18 -3 18
-1 0 -7 -8 -12 -18z"/>
<path d="M5562 11074 c10 -10 20 -16 22 -13 3 3 -5 11 -17 18 -21 13 -21 12
-5 -5z"/>
<path d="M5606 11072 c-2 -4 4 -8 14 -8 10 0 16 4 14 8 -3 4 -9 8 -14 8 -5 0
-11 -4 -14 -8z"/>
<path d="M5480 11063 c0 -6 8 -17 18 -24 16 -13 16 -13 2 6 -8 11 -16 22 -17
24 -2 2 -3 0 -3 -6z"/>
<path d="M5395 11030 c-4 -6 -1 -9 7 -8 7 2 12 -5 12 -15 -1 -10 1 -16 4 -13
3 4 17 -4 31 -16 17 -17 15 -11 -9 20 -37 47 -36 46 -45 32z"/>
<path d="M6506 11032 c-3 -5 1 -9 9 -9 8 0 12 4 9 9 -3 4 -7 8 -9 8 -2 0 -6
-4 -9 -8z"/>
<path d="M2550 11001 c0 -11 4 -22 9 -25 4 -3 6 6 3 19 -5 30 -12 33 -12 6z"/>
<path d="M6391 10994 c0 -11 3 -14 6 -6 3 7 2 16 -1 19 -3 4 -6 -2 -5 -13z"/>
<path d="M6474 10988 l-19 -23 23 19 c12 11 22 21 22 23 0 8 -8 2 -26 -19z"/>
<path d="M3951 10969 c0 -19 4 -43 9 -54 6 -13 7 -2 3 30 -7 59 -13 72 -12 24z"/>
<path d="M6421 10949 c7 -4 17 -5 21 -2 5 2 17 -1 26 -9 15 -11 16 -11 4 3 -7
9 -24 17 -38 17 -18 0 -22 -3 -13 -9z"/>
<path d="M2571 10945 c0 -5 6 -21 14 -35 8 -14 14 -20 14 -15 0 6 -6 21 -14
35 -8 14 -14 21 -14 15z"/>
<path d="M2601 10870 c0 -8 4 -22 9 -30 12 -18 12 -2 0 25 -6 13 -9 15 -9 5z"/>
<path d="M3990 10795 c0 -5 5 -17 10 -25 5 -8 10 -10 10 -5 0 6 -5 17 -10 25
-5 8 -10 11 -10 5z"/>
<path d="M4029 10712 c6 -12 16 -24 22 -28 8 -4 8 -1 0 14 -6 12 -16 24 -22
28 -8 4 -8 1 0 -14z"/>
<path d="M2643 10605 c0 -44 2 -61 4 -37 2 23 2 59 0 80 -2 20 -4 1 -4 -43z"/>
<path d="M4135 10592 c21 -23 41 -42 44 -42 2 0 -6 11 -18 24 -14 15 -20 30
-16 37 5 8 4 10 -4 5 -6 -4 -20 -2 -29 5 -9 7 1 -6 23 -29z"/>
<path d="M4216 10572 c-3 -5 1 -9 9 -9 8 0 12 4 9 9 -3 4 -7 8 -9 8 -2 0 -6
-4 -9 -8z"/>
<path d="M4217 10514 c-3 -3 12 -33 34 -66 21 -34 39 -66 39 -71 0 -6 3 -8 6
-5 7 7 -21 62 -52 104 -13 17 -21 34 -17 37 3 4 4 7 1 7 -2 0 -7 -3 -11 -6z"/>
<path d="M5871 10374 c0 -11 3 -14 6 -6 3 7 2 16 -1 19 -3 4 -6 -2 -5 -13z"/>
<path d="M4320 10330 c6 -11 13 -20 16 -20 2 0 0 9 -6 20 -6 11 -13 20 -16 20
-2 0 0 -9 6 -20z"/>
<path d="M2621 10324 c0 -11 3 -14 6 -6 3 7 2 16 -1 19 -3 4 -6 -2 -5 -13z"/>
<path d="M5764 10320 c0 -13 4 -16 10 -10 7 7 7 13 0 20 -6 6 -10 3 -10 -10z"/>
<path d="M5794 10318 c0 -16 2 -16 18 -1 10 9 18 17 18 17 0 1 -8 2 -18 2 -10
0 -18 -8 -18 -18z"/>
<path d="M2611 10234 c0 -11 3 -14 6 -6 3 7 2 16 -1 19 -3 4 -6 -2 -5 -13z"/>
<path d="M2602 10180 c0 -14 2 -19 5 -12 2 6 2 18 0 25 -3 6 -5 1 -5 -13z"/>
<path d="M2580 10138 c0 -9 5 -20 10 -23 13 -8 13 5 0 25 -8 13 -10 13 -10 -2z"/>
<path d="M6765 10089 c-4 -6 -5 -12 -2 -15 2 -3 7 2 10 11 7 17 1 20 -8 4z"/>
<path d="M2577 10063 c-4 -3 -7 -11 -7 -17 0 -6 5 -5 12 2 6 6 9 14 7 17 -3 3
-9 2 -12 -2z"/>
<path d="M2571 9994 c0 -11 3 -14 6 -6 3 7 2 16 -1 19 -3 4 -6 -2 -5 -13z"/>
<path d="M2562 9950 c0 -14 2 -19 5 -12 2 6 2 18 0 25 -3 6 -5 1 -5 -13z"/>
<path d="M2541 9824 c0 -11 3 -14 6 -6 3 7 2 16 -1 19 -3 4 -6 -2 -5 -13z"/>
<path d="M2521 9724 c0 -11 3 -14 6 -6 3 7 2 16 -1 19 -3 4 -6 -2 -5 -13z"/>
<path d="M2503 9643 c-6 -15 -7 -37 -3 -48 5 -15 8 -9 12 25 6 54 3 60 -9 23z"/>
<path d="M2492 9540 c0 -14 2 -19 5 -12 2 6 2 18 0 25 -3 6 -5 1 -5 -13z"/>
<path d="M2481 9484 c0 -11 3 -14 6 -6 3 7 2 16 -1 19 -3 4 -6 -2 -5 -13z"/>
<path d="M2472 9435 c0 -16 2 -22 5 -12 2 9 2 23 0 30 -3 6 -5 -1 -5 -18z"/>
<path d="M2452 9330 c0 -14 2 -19 5 -12 2 6 2 18 0 25 -3 6 -5 1 -5 -13z"/>
<path d="M2442 9230 c0 -19 2 -27 5 -17 2 9 2 25 0 35 -3 9 -5 1 -5 -18z"/>
<path d="M2442 9150 c0 -19 2 -27 5 -17 2 9 2 25 0 35 -3 9 -5 1 -5 -18z"/>
<path d="M5943 9173 c-34 -7 -63 -50 -63 -93 0 -30 6 -44 31 -64 41 -35 83
-34 120 3 49 50 37 121 -26 147 -19 8 -36 13 -37 13 -2 -1 -13 -4 -25 -6z"/>
<path d="M2451 9094 c0 -11 3 -14 6 -6 3 7 2 16 -1 19 -3 4 -6 -2 -5 -13z"/>
<path d="M2470 9011 c0 -11 4 -22 9 -25 4 -3 6 6 3 19 -5 30 -12 33 -12 6z"/>
<path d="M2501 8904 c0 -11 3 -14 6 -6 3 7 2 16 -1 19 -3 4 -6 -2 -5 -13z"/>
<path d="M2510 8825 c-11 -13 -10 -14 4 -9 9 3 16 10 16 15 0 13 -6 11 -20 -6z"/>
<path d="M3636 8798 c-14 -20 -16 -135 -16 -1035 0 -1000 0 -1013 20 -1033 20
-20 33 -20 1363 -20 1059 0 1347 3 1360 13 16 11 17 89 19 1040 3 1008 3 1029
-16 1043 -17 12 -163 14 -959 14 l-939 0 6 -22 c4 -13 9 -116 13 -230 l6 -208
909 0 908 0 0 -235 0 -235 -929 0 -929 0 -31 -29 c-67 -62 -149 -64 -246 -6
l-57 35 -209 0 -209 0 0 235 0 235 111 0 112 0 -7 31 c-3 17 -6 40 -6 50 0 17
-9 19 -94 19 -68 0 -97 4 -105 14 -8 9 -11 56 -9 142 l3 129 88 3 c77 2 87 5
87 22 0 47 -6 50 -121 50 -100 0 -109 -2 -123 -22z m2674 -193 l0 -145 -30 0
-30 0 0 145 0 145 30 0 30 0 0 -145z m-100 -31 l0 -114 -30 0 -30 0 0 113 c0
63 2 116 5 119 3 3 17 3 30 0 25 -4 25 -5 25 -118z m-100 -24 l0 -90 -30 0
-30 0 0 90 0 90 30 0 30 0 0 -90z m-100 -30 l0 -60 -30 0 -30 0 0 60 0 60 30
0 30 0 0 -60z m-110 -30 c0 -25 -4 -30 -25 -30 -21 0 -25 5 -25 30 0 25 4 30
25 30 21 0 25 -5 25 -30z m410 -965 l0 -265 -1305 0 -1305 0 0 265 0 265 1305
0 1305 0 0 -265z m-1490 -547 l0 -178 -560 0 -560 0 0 174 c0 173 0 175 23
178 12 2 264 3 560 3 l537 0 0 -177z m1490 0 l0 -178 -560 0 -560 0 0 175 0
175 533 2 c292 2 544 3 560 3 l27 0 0 -177z"/>
<path d="M4480 7636 l0 -76 50 0 c38 0 50 4 50 15 0 10 -10 15 -29 15 -16 0
-31 6 -35 15 -4 11 2 15 24 15 39 0 41 27 3 32 -37 4 -35 22 3 28 45 8 34 25
-18 28 l-48 3 0 -75z"/>
<path d="M4600 7635 c0 -60 3 -75 15 -75 15 0 18 12 16 60 -1 21 3 18 21 -17
16 -32 28 -43 45 -43 22 0 23 3 23 75 0 68 -2 75 -20 75 -17 0 -20 -7 -21 -42
l0 -43 -22 43 c-13 26 -28 42 -39 42 -16 0 -18 -9 -18 -75z"/>
<path d="M4740 7695 c0 -8 9 -15 20 -15 18 0 20 -7 20 -60 0 -53 2 -60 20 -60
18 0 20 7 20 60 0 53 2 60 20 60 11 0 20 7 20 15 0 12 -13 15 -60 15 -47 0
-60 -3 -60 -15z"/>
<path d="M4880 7635 l0 -75 50 0 c38 0 50 4 50 15 0 10 -10 15 -30 15 -20 0
-30 5 -30 15 0 9 9 15 25 15 16 0 25 6 25 15 0 9 -9 15 -25 15 -16 0 -25 6
-25 15 0 10 10 15 30 15 20 0 30 5 30 15 0 11 -12 15 -50 15 l-50 0 0 -75z"/>
<path d="M5000 7635 c0 -68 2 -75 20 -75 15 0 20 7 20 25 0 14 4 25 8 25 5 0
14 -11 20 -25 7 -15 20 -25 32 -25 24 0 25 8 5 37 -13 18 -13 22 0 33 39 32 1
80 -63 80 l-42 0 0 -75z m75 25 c0 -8 -8 -16 -17 -18 -13 -2 -18 3 -18 18 0
15 5 20 18 18 9 -2 17 -10 17 -18z"/>
<path d="M5220 7635 c0 -68 2 -75 20 -75 15 0 20 7 20 25 0 20 5 25 25 25 15
0 31 9 41 25 15 23 15 27 0 50 -14 21 -25 25 -61 25 l-45 0 0 -75z m75 25 c0
-8 -8 -16 -17 -18 -13 -2 -18 3 -18 18 0 15 5 20 18 18 9 -2 17 -10 17 -18z"/>
<path d="M5360 7635 c0 -68 2 -75 20 -75 18 0 20 7 20 75 0 68 -2 75 -20 75
-18 0 -20 -7 -20 -75z"/>
<path d="M5420 7636 c0 -69 2 -76 20 -76 17 0 20 7 21 43 l1 42 19 -42 c14
-29 26 -43 39 -43 18 0 20 7 20 75 0 60 -3 75 -15 75 -14 0 -20 -26 -16 -75 1
-11 -9 0 -22 25 -15 28 -33 46 -46 48 -20 3 -21 -1 -21 -72z"/>
<path d="M4647 7493 c-4 -3 -7 -15 -7 -26 0 -16 -5 -18 -25 -13 -36 9 -46 -21
-15 -44 21 -16 22 -20 10 -35 -11 -14 -11 -18 2 -31 13 -13 17 -12 33 6 l18
20 22 -20 c19 -18 24 -19 34 -6 9 11 10 20 2 35 -9 17 -8 22 9 31 31 17 22 46
-13 42 -23 -3 -27 0 -27 22 0 19 -5 26 -18 26 -10 0 -22 -3 -25 -7z"/>
<path d="M4850 7474 c0 -23 -3 -25 -25 -20 -36 9 -46 -21 -15 -44 21 -16 22
-20 10 -35 -11 -14 -11 -18 2 -31 13 -13 17 -12 33 6 18 20 18 20 39 1 15 -14
26 -17 36 -11 13 8 13 13 1 31 -12 20 -11 24 9 39 31 23 21 53 -15 44 -22 -5
-25 -3 -25 20 0 21 -5 26 -25 26 -20 0 -25 -5 -25 -26z"/>
<path d="M5060 7474 c0 -23 -3 -25 -25 -20 -35 9 -47 -22 -17 -42 18 -12 20
-18 11 -34 -8 -15 -8 -24 3 -34 12 -13 17 -12 33 6 l18 20 22 -20 c20 -18 23
-19 35 -5 10 12 10 18 -1 31 -12 15 -11 19 9 32 12 8 22 23 22 33 0 15 -5 17
-30 13 -27 -6 -30 -4 -30 20 0 21 -5 26 -25 26 -20 0 -25 -5 -25 -26z"/>
<path d="M5277 7493 c-4 -3 -7 -15 -7 -26 0 -16 -5 -18 -25 -13 -35 9 -47 -22
-17 -42 18 -12 20 -18 11 -34 -8 -15 -8 -24 3 -34 12 -13 17 -12 33 6 18 20
18 20 39 1 15 -14 26 -17 36 -11 13 8 13 13 1 31 -12 20 -11 24 9 39 31 23 21
53 -15 44 -22 -5 -25 -3 -25 20 0 19 -5 26 -18 26 -10 0 -22 -3 -25 -7z"/>
<path d="M4413 7048 c-31 -15 -46 -65 -32 -106 11 -33 37 -46 80 -40 35 5 31
33 -5 33 -37 0 -51 22 -37 59 9 23 16 27 36 23 32 -6 44 12 20 30 -22 15 -32
15 -62 1z"/>
<path d="M3880 6975 c0 -68 2 -75 20 -75 15 0 20 7 20 25 0 14 4 25 8 25 5 0
14 -11 20 -25 7 -15 20 -25 32 -25 23 0 24 4 9 32 -8 14 -7 28 1 48 20 47 0
70 -60 70 l-50 0 0 -75z m75 25 c0 -8 -8 -16 -17 -18 -13 -2 -18 3 -18 18 0
15 5 20 18 18 9 -2 17 -10 17 -18z"/>
<path d="M4020 6975 l0 -75 50 0 c38 0 50 4 50 15 0 10 -10 15 -30 15 -20 0
-30 5 -30 15 0 9 9 15 25 15 18 0 25 5 25 19 0 14 -6 17 -25 13 -18 -3 -25 0
-25 12 0 11 9 16 30 16 20 0 30 5 30 15 0 11 -12 15 -50 15 l-50 0 0 -75z"/>
<path d="M4198 6993 c-3 -54 -5 -58 -28 -58 -42 0 -31 -30 13 -33 32 -3 38 0
46 22 6 13 10 47 9 75 0 43 -3 51 -18 51 -16 0 -19 -9 -22 -57z"/>
<path d="M4260 6975 l0 -75 50 0 c38 0 50 4 50 15 0 10 -10 15 -30 15 -20 0
-30 5 -30 15 0 9 9 15 25 15 16 0 25 6 25 15 0 9 -9 15 -25 15 -16 0 -25 6
-25 15 0 10 10 15 30 15 20 0 30 5 30 15 0 11 -12 15 -50 15 l-50 0 0 -75z"/>
<path d="M4510 7035 c0 -8 9 -15 20 -15 18 0 20 -7 20 -60 0 -53 2 -60 20 -60
18 0 20 7 20 60 0 53 2 60 20 60 11 0 20 7 20 15 0 12 -13 15 -60 15 -47 0
-60 -3 -60 -15z"/>
<path d="M5400 7034 c-5 -12 -14 -40 -20 -63 -6 -23 -14 -49 -17 -57 -3 -9 2
-14 15 -14 11 0 22 8 25 19 6 23 32 22 50 -3 7 -10 20 -17 28 -15 13 3 12 16
-8 81 -20 65 -27 76 -44 75 -12 -1 -25 -11 -29 -23z m33 -44 c3 -11 1 -20 -4
-20 -5 0 -9 9 -9 20 0 11 2 20 4 20 2 0 6 -9 9 -20z"/>
<path d="M5525 7035 c-31 -30 -33 -82 -5 -113 22 -23 64 -29 90 -12 19 12 5
25 -27 25 -32 0 -48 24 -39 58 5 22 12 27 36 27 36 0 47 16 21 29 -30 17 -50
13 -76 -14z"/>
<path d="M5654 7036 c-55 -46 -25 -136 45 -136 14 0 32 4 40 9 20 13 3 34 -23
27 -25 -6 -40 2 -49 27 -11 29 10 57 43 57 36 0 47 16 21 29 -30 16 -47 13
-77 -13z"/>
<path d="M5769 7053 c0 -2 -1 -36 -2 -75 l-1 -73 52 -3 c42 -2 52 0 52 12 0
11 -10 16 -30 16 -36 0 -42 27 -7 32 32 4 28 32 -5 36 -38 4 -36 22 2 22 22 0
30 5 30 18 0 14 -9 17 -45 18 -25 0 -45 -1 -46 -3z"/>
<path d="M5890 6977 c0 -69 2 -78 18 -75 9 2 17 12 17 22 0 12 12 22 34 30 19
6 37 20 41 31 9 24 -5 65 -22 66 -7 0 -30 2 -50 3 l-38 2 0 -79z m74 34 c7
-11 -22 -36 -31 -27 -4 4 -8 13 -9 21 -2 16 31 21 40 6z"/>
<path d="M6017 7047 c-7 -19 1 -27 25 -27 15 0 18 -8 18 -60 0 -53 2 -60 20
-60 18 0 20 7 20 60 0 54 2 60 21 60 14 0 19 5 17 17 -4 23 -113 32 -121 10z"/>
<path d="M2540 8775 c0 -8 4 -15 10 -15 5 0 7 7 4 15 -4 8 -8 15 -10 15 -2 0
-4 -7 -4 -15z"/>
<path d="M2573 8728 c1 -15 6 -23 11 -18 4 4 4 16 -2 26 -9 16 -10 14 -9 -8z"/>
<path d="M3732 8608 l3 -113 83 -3 c68 -2 82 0 82 13 0 9 -9 15 -25 15 -25 0
-25 1 -25 85 0 78 2 85 20 85 11 0 20 7 20 15 0 12 -16 15 -80 15 l-81 0 3
-112z m98 -3 l0 -85 -40 0 -40 0 0 85 0 85 40 0 40 0 0 -85z"/>
<path d="M2670 8606 c0 -2 8 -10 18 -17 15 -13 16 -12 3 4 -13 16 -21 21 -21
13z"/>
<path d="M2751 8515 c10 -11 19 -29 22 -40 4 -19 5 -19 6 1 0 11 -9 29 -21 40
-23 19 -23 19 -7 -1z"/>
<path d="M2801 8354 c0 -11 3 -14 6 -6 3 7 2 16 -1 19 -3 4 -6 -2 -5 -13z"/>
<path d="M2831 8234 c0 -11 3 -14 6 -6 3 7 2 16 -1 19 -3 4 -6 -2 -5 -13z"/>
<path d="M3846 8231 c-2 -3 -16 -45 -30 -94 -15 -48 -29 -94 -32 -102 -5 -11
1 -15 20 -15 19 0 29 7 36 25 7 18 17 25 35 25 18 0 28 -7 35 -25 7 -18 17
-25 35 -25 14 0 25 3 25 6 0 4 -14 50 -31 104 -29 92 -33 98 -60 102 -17 3
-31 2 -33 -1z m43 -108 c1 -7 -6 -13 -14 -13 -16 0 -18 12 -8 50 l7 25 7 -25
c4 -14 7 -31 8 -37z"/>
<path d="M5483 8228 c-38 -10 -49 -24 -33 -43 9 -11 16 -11 30 -3 23 15 50 4
50 -21 0 -10 -20 -41 -45 -69 -25 -27 -45 -55 -45 -61 0 -7 27 -11 75 -11 68
0 75 2 75 20 0 16 -7 20 -36 20 l-36 0 31 35 c64 73 23 157 -66 133z"/>
<path d="M5650 8227 c-38 -19 -32 -42 10 -42 19 0 36 -3 38 -7 6 -19 1 -28
-17 -28 -10 0 -21 -9 -24 -19 -3 -15 2 -20 24 -25 41 -8 41 -46 1 -46 -15 0
-33 5 -39 11 -8 8 -14 6 -22 -9 -13 -24 1 -39 46 -48 66 -13 120 48 85 97 -10
15 -11 24 -3 32 45 45 -38 114 -99 84z"/>
<path d="M4486 8136 c-7 -90 -6 -101 10 -113 37 -27 97 -6 114 40 5 16 10 61
10 98 0 67 -1 69 -25 69 -24 0 -25 -2 -25 -73 0 -75 -9 -97 -42 -97 -21 0 -27
22 -30 110 -3 62 -3 61 -12 -34z"/>
<path d="M4650 8125 l0 -105 26 0 c25 0 26 1 22 60 -1 33 -2 60 -1 60 2 0 16
-27 33 -60 27 -53 34 -60 60 -60 l30 0 0 105 0 105 -25 0 c-24 0 -25 -2 -26
-67 l0 -68 -32 68 c-27 59 -34 67 -59 67 l-28 0 0 -105z"/>
<path d="M4845 8213 c2 -10 4 -21 4 -24 1 -3 12 -4 26 -1 l25 4 0 -86 c0 -85
0 -86 25 -86 24 0 24 2 27 83 3 81 3 82 31 85 19 2 27 9 27 23 0 17 -8 19 -84
19 -75 0 -84 -2 -81 -17z"/>
<path d="M5310 8221 c-32 -9 -40 -41 -11 -41 19 0 21 -6 21 -60 0 -53 -2 -60
-20 -60 -13 0 -20 -7 -20 -20 0 -19 5 -21 67 -18 54 2 67 6 69 21 1 11 -4 17
-16 17 -17 0 -20 10 -22 83 -3 89 -8 95 -68 78z"/>
<path d="M5920 8168 c-53 -84 -53 -98 5 -98 41 0 45 -2 45 -25 0 -20 5 -25 25
-25 18 0 25 5 25 20 0 11 7 23 15 26 8 4 15 13 15 20 0 8 -7 17 -15 20 -11 5
-15 22 -15 65 0 59 0 59 -30 59 -25 0 -35 -9 -70 -62z m50 -33 c0 -16 -6 -25
-15 -25 -18 0 -19 4 -3 30 16 26 18 25 18 -5z"/>
<path d="M6078 8179 c-3 -55 9 -75 40 -65 23 8 47 -17 38 -39 -6 -17 -47 -20
-62 -5 -8 8 -15 6 -24 -5 -35 -42 76 -70 119 -31 40 36 23 110 -29 121 -45 10
-40 38 5 33 31 -4 35 -1 35 19 0 21 -4 23 -59 23 l-59 0 -4 -51z"/>
<path d="M5807 8074 c-13 -13 -7 -52 9 -58 22 -9 46 13 42 38 -3 21 -37 34
-51 20z"/>
<path d="M4000 8043 c0 -13 5 -23 10 -23 13 0 13 11 0 30 -8 12 -10 11 -10 -7z"/>
<path d="M2904 8001 c0 -11 3 -19 7 -18 3 1 16 -9 28 -23 17 -19 15 -14 -5 18
-15 23 -27 42 -28 42 -1 0 -2 -9 -2 -19z"/>
<path d="M8620 7915 c-7 -8 -9 -15 -5 -15 5 0 0 -9 -11 -21 -19 -21 -19 -67
-22 -1807 -2 -1598 -1 -1788 13 -1809 9 -13 13 -29 9 -35 -4 -7 -3 -8 4 -4 7
4 12 3 12 -2 0 -5 6 -10 13 -12 6 -2 243 -5 525 -7 l512 -3 2 -123 1 -122 10
170 c5 94 8 314 7 490 -6 659 -3 978 9 1024 7 24 29 61 50 84 36 38 43 41 102
45 55 3 72 0 122 -26 31 -16 57 -25 57 -20 0 4 9 17 20 28 32 32 96 27 147
-10 l42 -31 3 38 c2 30 7 38 23 38 18 0 20 -8 23 -77 3 -71 1 -78 -16 -78 -10
0 -27 10 -38 21 -31 34 -101 79 -124 79 -26 0 -36 -24 -22 -53 5 -12 15 -36
22 -53 8 -22 29 -42 71 -67 l59 -35 0 34 c0 30 3 34 25 34 24 0 25 -2 25 -75
0 -89 -9 -94 -73 -40 -22 19 -41 34 -43 32 -1 -1 12 -45 30 -97 30 -93 31 -94
34 -52 3 37 6 42 28 42 23 0 24 -2 24 -75 0 -71 -1 -75 -23 -75 -22 0 -22 -1
-13 -80 7 -55 14 -80 23 -80 17 0 18 -112 1 -140 -9 -14 -9 -24 -1 -42 6 -13
14 -53 16 -89 6 -82 40 -162 92 -212 43 -42 37 -44 158 43 48 35 79 64 83 80
13 50 63 150 96 193 29 38 38 65 62 178 42 206 113 526 135 609 20 73 21 106
21 1107 l0 1033 -29 32 -29 33 -1114 0 c-612 0 -1122 -4 -1133 -8 -20 -9 -20
-8 -1 7 11 9 15 16 9 16 -6 0 -16 -7 -23 -15z m1116 -221 c15 -11 37 -33 48
-48 20 -27 21 -39 21 -406 0 -367 -1 -379 -21 -406 -51 -69 -49 -69 -336 -72
-176 -2 -270 1 -288 8 -15 6 -43 27 -61 46 l-34 35 -3 367 c-2 202 0 377 3
389 8 32 55 84 90 99 23 11 89 13 292 11 247 -2 263 -3 289 -23z m488 11 c3
-9 18 -15 36 -15 23 0 30 -4 30 -19 0 -15 -8 -21 -32 -23 -32 -3 -33 -5 -36
-50 -2 -30 -8 -48 -15 -48 -11 0 -151 82 -170 99 -4 4 -5 15 -1 24 5 14 20 17
75 17 55 0 69 3 69 15 0 8 9 15 19 15 10 0 21 -7 25 -15z m387 3 c1 -7 2 -21
2 -30 0 -11 7 -18 18 -18 14 0 19 7 19 25 0 14 5 25 10 25 6 0 10 -11 10 -25
0 -18 5 -25 20 -25 16 0 20 7 20 30 0 17 5 30 10 30 6 0 10 -20 10 -45 l0 -45
-70 0 -70 0 0 45 c0 25 5 45 10 45 6 0 11 -6 11 -12z m116 -120 c-2 -7 -13
-13 -24 -13 -32 0 -37 -12 -8 -19 32 -8 32 -24 0 -36 -31 -12 -32 -22 -2 -20
35 3 47 1 47 -10 0 -6 -32 -10 -75 -10 -86 0 -102 18 -35 40 22 7 40 16 40 20
0 4 -18 13 -40 20 -66 22 -51 40 31 40 52 0 70 -3 66 -12z m-503 -83 c3 -9 18
-15 36 -15 23 0 30 -4 30 -19 0 -15 -8 -21 -32 -23 -31 -3 -33 -6 -36 -43 -2
-22 -7 -44 -12 -49 -4 -4 -44 14 -89 40 -63 38 -81 54 -81 71 0 22 4 23 70 23
56 0 70 3 70 15 0 8 9 15 19 15 10 0 21 -7 25 -15z m506 -55 c0 -5 -9 -14 -20
-20 -25 -14 -26 -40 -1 -47 21 -5 37 -33 19 -33 -27 0 -138 45 -138 56 0 7 26
21 58 32 66 23 82 26 82 12z m4 -133 c-3 -8 -24 -25 -47 -38 l-42 -24 43 -3
c69 -5 48 -22 -28 -22 -82 0 -93 16 -30 45 22 10 40 22 40 27 0 4 -18 8 -40 8
-22 0 -40 5 -40 10 0 6 32 10 75 10 58 0 73 -3 69 -13z m-510 -12 c3 -9 18
-15 36 -15 23 0 30 -4 30 -19 0 -15 -8 -21 -32 -23 -31 -3 -33 -5 -36 -47 -3
-42 -4 -43 -31 -38 -16 3 -58 24 -94 47 -51 32 -64 45 -60 60 5 17 14 20 74
20 55 0 69 3 69 15 0 8 9 15 19 15 10 0 21 -7 25 -15z m0 -200 c3 -9 18 -15
36 -15 23 0 30 -4 30 -19 0 -15 -8 -21 -32 -23 -31 -3 -33 -5 -33 -43 0 -22
-5 -43 -12 -48 -7 -4 -45 12 -92 40 -63 37 -81 53 -81 71 0 21 4 22 70 22 56
0 70 3 70 15 0 8 9 15 19 15 10 0 21 -7 25 -15z m439 -46 c18 -8 30 -8 46 0
17 10 21 9 21 -4 0 -8 -11 -21 -25 -27 -14 -6 -25 -17 -25 -25 0 -9 8 -12 25
-9 17 3 25 0 25 -10 0 -11 -16 -14 -70 -14 l-70 0 0 34 c0 33 21 66 40 66 5 0
20 -5 33 -11z m71 -132 c-1 -9 -2 -28 -3 -42 -1 -24 -3 -25 -71 -25 l-70 0 0
40 c0 30 4 40 16 40 11 0 15 -6 11 -19 -2 -10 -1 -24 3 -31 12 -19 30 -2 30
28 0 29 16 20 22 -13 2 -11 11 -21 21 -23 14 -3 17 4 17 33 0 25 4 35 13 33 6
-3 11 -12 11 -21z m-20 -113 c9 -8 16 -31 16 -50 l0 -34 -70 0 c-70 0 -70 0
-70 28 0 46 25 72 70 72 22 0 45 -7 54 -16z m-447 -16 c28 -26 31 -82 5 -116
-16 -20 -19 -21 -37 -8 -19 14 -19 15 -1 34 26 29 13 64 -22 60 -21 -2 -28 -9
-30 -31 -3 -23 -8 -28 -25 -25 -12 2 -20 5 -18 8 2 3 -1 15 -8 28 -24 45 -64
15 -43 -33 9 -19 8 -26 -5 -36 -13 -11 -18 -10 -34 10 -25 30 -24 76 1 101 21
21 65 26 89 11 10 -6 22 -5 35 5 29 20 66 17 93 -8z m464 -105 c1 -10 3 -28 4
-41 3 -26 -16 -32 -82 -28 -60 4 -63 5 -63 16 0 6 27 10 60 10 l60 0 0 30 c0
32 19 43 21 13z m-929 -260 c8 -11 -18 -13 -136 -13 -81 0 -145 3 -143 8 2 4
34 60 72 125 l68 118 64 -113 c35 -62 69 -118 75 -125z m471 180 c38 -35 3
-157 -36 -125 -14 12 -14 16 1 42 14 23 14 31 3 44 -23 27 -49 20 -59 -16 -11
-44 -37 -48 -50 -9 -14 40 -52 44 -52 7 0 -14 5 -28 10 -31 15 -9 12 -22 -7
-30 -22 -8 -53 28 -53 62 0 49 76 93 107 62 8 -8 19 -6 39 5 32 17 70 13 97
-11z m447 -33 c59 -59 -37 -134 -108 -84 -14 10 -22 26 -22 44 0 55 88 82 130
40z m-588 -144 c23 -12 29 -12 39 0 17 21 76 17 99 -6 35 -35 17 -130 -25
-130 -23 0 -26 17 -8 49 17 29 17 31 0 48 -22 23 -51 7 -55 -31 -5 -37 -37
-35 -51 4 -11 32 -38 40 -48 14 -3 -9 -1 -26 6 -37 15 -23 1 -43 -23 -34 -46
18 -43 100 4 124 31 16 29 16 62 -1z m598 5 c0 -5 -12 -11 -27 -13 -22 -2 -28
-8 -28 -28 0 -20 6 -26 28 -28 55 -7 25 -22 -43 -22 -68 0 -98 15 -42 22 21 2
27 8 27 28 0 20 -6 26 -27 28 -56 7 -26 22 42 22 39 0 70 -4 70 -9z m-4 -149
c6 -12 9 -34 6 -47 -4 -24 -8 -25 -74 -25 l-70 0 3 33 c4 51 25 68 78 65 36
-2 48 -8 57 -26z m-462 -43 c32 -25 36 -84 7 -120 -16 -20 -21 -21 -35 -10
-15 13 -15 16 -1 38 21 32 11 63 -21 63 -19 0 -26 -6 -31 -31 -4 -23 -10 -29
-26 -27 -13 2 -23 13 -27 28 -8 33 -44 34 -48 2 -2 -13 1 -29 7 -36 8 -10 7
-17 -5 -27 -14 -11 -19 -10 -35 10 -25 30 -24 76 1 101 21 21 65 26 89 11 10
-6 22 -5 35 5 29 20 59 18 90 -7z m442 -94 c-34 -27 -33 -35 4 -35 17 0 30 -4
30 -10 0 -6 -32 -10 -75 -10 -74 0 -75 0 -75 26 0 54 45 85 78 52 8 -8 17 -7
34 4 33 23 37 -1 4 -27z m-1396 -70 c0 -39 -11 -49 -120 -110 -47 -27 -87 -50
-89 -52 -3 -2 7 -15 21 -30 23 -23 36 -26 100 -28 40 -2 77 -3 81 -4 5 0 7
-20 5 -43 l-3 -43 -240 0 -240 0 -3 43 c-2 23 0 42 5 43 4 1 43 2 85 3 42 1
79 4 82 7 3 3 -35 38 -85 78 l-90 74 3 45 c2 25 8 47 13 49 6 2 48 -28 94 -66
l84 -70 46 27 c25 15 86 50 135 79 98 58 116 57 116 -2z m1420 -19 c0 -7 -9
-16 -20 -19 -23 -6 -28 -47 -6 -47 17 0 40 -26 29 -33 -13 -8 -143 44 -143 57
0 7 28 22 63 33 77 26 77 26 77 9z m-445 -165 c0 -44 -4 -76 -11 -78 -5 -2
-38 19 -73 47 -64 52 -106 64 -118 34 -3 -9 -1 -26 6 -37 10 -16 10 -22 -2
-34 -12 -13 -17 -11 -36 13 -37 47 -23 95 32 113 39 13 62 7 120 -33 l37 -25
0 40 c0 36 2 40 23 37 21 -3 22 -8 22 -77z m338 52 c4 -3 2 -12 -4 -19 -17
-21 7 -54 39 -54 43 0 56 14 49 49 -8 37 9 42 25 6 23 -51 -43 -99 -103 -75
-32 14 -44 40 -35 76 6 24 17 30 29 17z m-1315 -321 c2 -18 -2 -40 -9 -48 -6
-8 -73 -49 -148 -92 l-136 -77 145 -5 145 -5 0 -40 0 -40 -240 0 -240 0 -3 41
-3 41 148 84 148 84 -145 5 -145 5 -3 28 c-7 59 -14 58 245 55 l238 -3 3 -33z
m-3 -452 l0 -45 -65 -21 -65 -20 -3 -67 -3 -66 50 -15 c83 -24 93 -32 89 -74
-2 -25 -8 -38 -20 -40 -9 -2 -118 32 -243 74 l-226 77 3 46 3 46 220 77 c121
43 229 76 240 75 17 -2 20 -9 20 -47z m-74 -424 c26 -11 58 -61 69 -108 15
-66 13 -203 -4 -217 -9 -8 -82 -11 -242 -9 l-229 3 0 115 c0 90 4 122 18 147
32 60 114 81 170 44 28 -18 28 -18 58 10 39 37 95 42 160 15z"/>
<path d="M9234 7663 c-53 -3 -65 -8 -90 -34 l-29 -30 0 -359 0 -359 29 -30
c16 -17 32 -29 34 -26 2 2 -8 15 -24 28 -27 23 -28 27 -28 128 l-1 104 93 -3
c64 -2 92 0 92 8 0 8 -25 11 -77 10 -43 -1 -85 -2 -93 -1 -13 1 -15 24 -15
144 l-1 142 94 -5 93 -5 0 -145 c0 -80 0 -202 0 -272 l-1 -128 -62 0 c-34 0
-58 -3 -55 -7 8 -7 478 -5 485 2 3 3 -22 5 -56 5 -43 0 -62 4 -63 13 0 6 -2
64 -2 127 l-2 115 79 -3 c134 -6 121 -33 120 263 l-1 256 -26 27 c-27 27 -28
27 -212 32 -102 3 -185 1 -185 -3 0 -5 -4 -5 -10 -2 -6 4 -10 -40 -10 -124 l0
-131 -92 0 -93 0 2 87 c1 49 3 93 3 99 0 6 11 23 25 38 21 23 32 26 85 26 33
0 60 4 60 10 0 6 -1 9 -2 8 -2 -1 -30 -3 -64 -5z m459 -24 c43 -19 50 -45 48
-166 l-1 -72 -97 -3 -98 -3 -3 -282 -2 -283 -105 0 -105 0 0 410 0 410 170 0
c102 0 179 -4 193 -11z m47 -399 c0 -138 0 -140 -22 -141 -45 -1 -153 3 -156
6 -3 3 -5 243 -3 268 1 4 42 7 91 7 l90 0 0 -140z"/>
<path d="M9740 6978 c0 -56 2 -99 5 -96 9 8 11 198 3 198 -5 0 -8 -46 -8 -102z"/>
<path d="M9708 6849 c-10 -10 -18 -21 -18 -24 0 -9 49 29 50 38 0 12 -14 6
-32 -14z"/>
<path d="M10130 7642 c0 -5 11 -14 25 -20 22 -10 25 -9 25 8 0 15 -7 20 -25
20 -14 0 -25 -4 -25 -8z"/>
<path d="M10135 7440 c3 -5 15 -15 26 -20 16 -9 19 -7 19 10 0 15 -7 20 -26
20 -14 0 -22 -4 -19 -10z"/>
<path d="M10652 7411 c-11 -7 -11 -9 2 -14 10 -4 16 -1 16 8 0 17 -1 17 -18 6z"/>
<path d="M10130 7246 c0 -2 11 -11 25 -20 24 -16 25 -16 25 4 0 15 -7 20 -25
20 -14 0 -25 -2 -25 -4z"/>
<path d="M10130 7046 c0 -2 11 -11 25 -20 24 -16 25 -16 25 4 0 15 -7 20 -25
20 -14 0 -25 -2 -25 -4z"/>
<path d="M10616 7023 c-8 -21 6 -36 26 -28 10 4 14 14 11 26 -6 23 -29 25 -37
2z"/>
<path d="M10626 6788 c-21 -29 -12 -38 40 -38 37 0 44 3 44 20 0 20 -27 40
-54 40 -8 0 -22 -10 -30 -22z"/>
<path d="M10620 6555 c-11 -13 -11 -18 2 -31 33 -33 92 -20 86 19 -2 17 -11
23 -39 25 -23 2 -40 -2 -49 -13z"/>
<path d="M10626 6278 c-21 -30 -12 -38 40 -36 35 1 44 5 44 19 0 19 -28 39
-54 39 -8 0 -22 -10 -30 -22z"/>
<path d="M10617 6149 c-6 -23 18 -38 35 -21 8 8 8 15 -2 27 -17 20 -27 19 -33
-6z"/>
<path d="M10651 6031 c-10 -6 -10 -10 -1 -16 13 -8 24 -1 19 14 -3 6 -10 7
-18 2z"/>
<path d="M9010 5043 l-45 -16 54 -18 c29 -10 57 -17 61 -14 11 7 -1 65 -14 64
-6 0 -31 -8 -56 -16z"/>
<path d="M9117 4662 c-10 -11 -20 -45 -23 -80 l-7 -62 67 0 66 0 0 51 c0 50
-12 87 -34 101 -20 13 -53 8 -69 -10z"/>
<path d="M8922 4638 c-7 -7 -12 -36 -12 -65 l0 -53 50 0 50 0 0 39 c0 63 -15
91 -48 91 -15 0 -33 -5 -40 -12z"/>
<path d="M2983 7898 c-16 -26 -12 -38 8 -28 10 6 19 15 19 20 0 15 -18 21 -27
8z m17 -8 c0 -5 -5 -10 -11 -10 -5 0 -7 5 -4 10 3 6 8 10 11 10 2 0 4 -4 4
-10z"/>
<path d="M7081 6954 c0 -11 3 -14 6 -6 3 7 2 16 -1 19 -3 4 -6 -2 -5 -13z"/>
<path d="M6781 6514 c0 -11 3 -14 6 -6 3 7 2 16 -1 19 -3 4 -6 -2 -5 -13z"/>
<path d="M11014 5758 c10 -6 22 -6 26 -2 5 5 -3 10 -18 11 -22 1 -24 0 -8 -9z"/>
<path d="M11141 5707 c2 -1 13 -9 24 -17 19 -14 19 -14 6 3 -7 9 -18 17 -24
17 -6 0 -8 -1 -6 -3z"/>
<path d="M11195 5660 c3 -5 8 -10 11 -10 2 0 4 5 4 10 0 6 -5 10 -11 10 -5 0
-7 -4 -4 -10z"/>
<path d="M11230 5622 c0 -5 6 -16 13 -27 10 -13 16 -15 21 -6 4 6 2 18 -4 26
-13 16 -30 20 -30 7z m28 -27 c-3 -3 -9 2 -12 12 -6 14 -5 15 5 6 7 -7 10 -15
7 -18z"/>
<path d="M11287 5510 c9 -22 18 -38 20 -36 5 5 -24 76 -31 76 -2 0 3 -18 11
-40z"/>
<path d="M11331 5344 c0 -11 3 -14 6 -6 3 7 2 16 -1 19 -3 4 -6 -2 -5 -13z"/>
<path d="M11371 5184 c0 -11 3 -14 6 -6 3 7 2 16 -1 19 -3 4 -6 -2 -5 -13z"/>
<path d="M11381 5144 c0 -11 3 -14 6 -6 3 7 2 16 -1 19 -3 4 -6 -2 -5 -13z"/>
<path d="M11424 5052 c18 -21 29 -23 27 -5 -1 4 -4 8 -8 8 -5 0 -15 4 -23 9
-9 6 -7 1 4 -12z"/>
<path d="M11471 4998 c11 -21 34 -19 34 3 0 8 -10 15 -22 15 -19 1 -21 -2 -12
-18z m29 2 c0 -5 -4 -10 -10 -10 -5 0 -10 5 -10 10 0 6 5 10 10 10 6 0 10 -4
10 -10z"/>
<path d="M11517 4945 c10 -13 22 -25 27 -25 5 0 -1 11 -14 25 -30 32 -36 32
-13 0z"/>
<path d="M11586 4947 c3 -10 9 -15 12 -12 3 3 0 11 -7 18 -10 9 -11 8 -5 -6z"/>
<path d="M11560 4890 c6 -11 13 -20 16 -20 2 0 0 9 -6 20 -6 11 -13 20 -16 20
-2 0 0 -9 6 -20z"/>
<path d="M11631 4790 c0 -3 6 -25 13 -50 8 -25 15 -36 15 -25 0 17 -26 88 -28
75z"/>
<path d="M11723 4375 c0 -38 2 -53 4 -32 2 20 2 52 0 70 -2 17 -4 1 -4 -38z"/>
<path d="M3291 4324 c0 -11 3 -14 6 -6 3 7 2 16 -1 19 -3 4 -6 -2 -5 -13z"/>
<path d="M11701 4214 c0 -11 3 -14 6 -6 3 7 2 16 -1 19 -3 4 -6 -2 -5 -13z"/>
<path d="M11671 4044 c0 -11 3 -14 6 -6 3 7 2 16 -1 19 -3 4 -6 -2 -5 -13z"/>
<path d="M6701 4034 c0 -11 3 -14 6 -6 3 7 2 16 -1 19 -3 4 -6 -2 -5 -13z"/>
<path d="M11661 3984 c0 -11 3 -14 6 -6 3 7 2 16 -1 19 -3 4 -6 -2 -5 -13z"/>
<path d="M11652 3940 c0 -14 2 -19 5 -12 2 6 2 18 0 25 -3 6 -5 1 -5 -13z"/>
<path d="M9682 3880 c0 -14 2 -19 5 -12 2 6 2 18 0 25 -3 6 -5 1 -5 -13z"/>
<path d="M11641 3874 c0 -11 3 -14 6 -6 3 7 2 16 -1 19 -3 4 -6 -2 -5 -13z"/>
<path d="M11632 3810 c0 -14 2 -19 5 -12 2 6 2 18 0 25 -3 6 -5 1 -5 -13z"/>
<path d="M9692 3785 c0 -16 2 -22 5 -12 2 9 2 23 0 30 -3 6 -5 -1 -5 -18z"/>
<path d="M11622 3740 c0 -14 2 -19 5 -12 2 6 2 18 0 25 -3 6 -5 1 -5 -13z"/>
<path d="M9701 3724 c0 -11 3 -14 6 -6 3 7 2 16 -1 19 -3 4 -6 -2 -5 -13z"/>
<path d="M9711 3664 c0 -11 3 -14 6 -6 3 7 2 16 -1 19 -3 4 -6 -2 -5 -13z"/>
<path d="M11602 3645 c0 -16 2 -22 5 -12 2 9 2 23 0 30 -3 6 -5 -1 -5 -18z"/>
<path d="M9731 3574 c0 -11 3 -14 6 -6 3 7 2 16 -1 19 -3 4 -6 -2 -5 -13z"/>
<path d="M6570 3566 c0 -2 8 -10 18 -17 15 -13 16 -12 3 4 -13 16 -21 21 -21
13z"/>
<path d="M11581 3544 c0 -11 3 -14 6 -6 3 7 2 16 -1 19 -3 4 -6 -2 -5 -13z"/>
<path d="M9741 3530 c0 -8 4 -24 9 -35 5 -13 9 -14 9 -5 0 8 -4 24 -9 35 -5
13 -9 14 -9 5z"/>
<path d="M11571 3484 c0 -11 3 -14 6 -6 3 7 2 16 -1 19 -3 4 -6 -2 -5 -13z"/>
<path d="M11562 3405 c0 -16 2 -22 5 -12 2 9 2 23 0 30 -3 6 -5 -1 -5 -18z"/>
<path d="M11552 3350 c0 -14 2 -19 5 -12 2 6 2 18 0 25 -3 6 -5 1 -5 -13z"/>
<path d="M9810 3321 c0 -6 4 -13 10 -16 6 -3 7 1 4 9 -7 18 -14 21 -14 7z"/>
<path d="M11541 3264 c0 -11 3 -14 6 -6 3 7 2 16 -1 19 -3 4 -6 -2 -5 -13z"/>
<path d="M9850 3245 c0 -5 5 -17 10 -25 5 -8 10 -10 10 -5 0 6 -5 17 -10 25
-5 8 -10 11 -10 5z"/>
<path d="M11533 3180 c0 -25 2 -35 4 -22 2 12 2 32 0 45 -2 12 -4 2 -4 -23z"/>
<path d="M9935 3089 c-4 -6 -4 -13 -1 -16 3 -4 6 -1 6 7 0 10 4 10 18 -1 15
-13 16 -12 3 4 -16 20 -18 20 -26 6z"/>
<path d="M11524 2995 c0 -55 1 -76 3 -47 2 29 2 74 0 100 -2 26 -3 2 -3 -53z"/>
<path d="M9975 3040 c3 -5 8 -10 11 -10 2 0 4 5 4 10 0 6 -5 10 -11 10 -5 0
-7 -4 -4 -10z"/>
<path d="M10050 2960 c0 -5 5 -10 11 -10 5 0 7 5 4 10 -3 6 -8 10 -11 10 -2 0
-4 -4 -4 -10z"/>
<path d="M10089 2928 c7 -9 9 -23 5 -30 -6 -10 -4 -11 7 0 11 10 10 15 -6 30
-17 15 -18 15 -6 0z"/>
<path d="M10133 2863 c0 -12 3 -20 6 -18 2 3 10 -3 18 -13 13 -16 13 -15 4 3
-22 43 -30 51 -28 28z"/>
<path d="M11532 2830 c0 -14 2 -19 5 -12 2 6 2 18 0 25 -3 6 -5 1 -5 -13z"/>
<path d="M11541 2784 c0 -11 3 -14 6 -6 3 7 2 16 -1 19 -3 4 -6 -2 -5 -13z"/>
<path d="M10181 2764 c0 -11 3 -14 6 -6 3 7 2 16 -1 19 -3 4 -6 -2 -5 -13z"/>
<path d="M10202 2690 c0 -14 2 -19 5 -12 2 6 2 18 0 25 -3 6 -5 1 -5 -13z"/>
<path d="M10212 2610 c0 -19 2 -27 5 -17 2 9 2 25 0 35 -3 9 -5 1 -5 -18z"/>
<path d="M11616 2585 c-9 -26 -7 -32 5 -12 6 10 9 21 6 23 -2 3 -7 -2 -11 -11z"/>
<path d="M10223 2435 c0 -44 2 -61 4 -37 2 23 2 59 0 80 -2 20 -4 1 -4 -43z"/>
<path d="M11612 2410 c0 -19 2 -27 5 -17 2 9 2 25 0 35 -3 9 -5 1 -5 -18z"/>
<path d="M10190 2320 c0 -6 7 -10 15 -10 8 0 15 2 15 4 0 2 -7 6 -15 10 -8 3
-15 1 -15 -4z"/>
<path d="M11600 2318 c0 -5 18 -8 41 -8 46 0 76 -13 102 -44 l18 -21 -10 21
c-6 12 -7 25 -3 29 4 3 3 6 -3 5 -26 -6 -38 3 -15 11 22 8 21 8 -8 4 -18 -3
-31 -1 -28 3 2 4 -18 7 -45 7 -27 0 -49 -3 -49 -7z"/>
<path d="M10085 2310 c-3 -6 1 -7 9 -4 18 7 21 14 7 14 -6 0 -13 -4 -16 -10z"/>
<path d="M10138 2313 c7 -3 16 -2 19 1 4 3 -2 6 -13 5 -11 0 -14 -3 -6 -6z"/>
<path d="M11761 2214 c0 -11 3 -14 6 -6 3 7 2 16 -1 19 -3 4 -6 -2 -5 -13z"/>
<path d="M11412 1995 c-60 -44 -65 -124 -10 -170 27 -23 39 -26 77 -22 60 7
91 41 91 102 0 61 -31 95 -90 102 -32 3 -52 0 -68 -12z"/>
<path d="M10012 1487 c-21 -12 -35 -31 -41 -55 -7 -22 -11 -301 -11 -734 l0
-698 951 0 951 0 -4 713 c-2 557 -6 717 -16 735 -31 55 13 52 -929 55 -827 2
-871 1 -901 -16z"/>
</g>
</svg>
